<mxfile host="app.diagrams.net" modified="2024-05-31T17:45:44.436Z" agent="Mozilla/5.0 (Windows NT 10.0; Win64; x64) AppleWebKit/537.36 (KHTML, like Gecko) Chrome/125.0.0.0 Safari/537.36" etag="IkVCaP396wqCYxEoT3D9" version="24.2.1" type="device">
  <diagram name="Page-1" id="SU60sq1JpARpPboAShl4">
    <mxGraphModel dx="880" dy="434" grid="1" gridSize="10" guides="1" tooltips="1" connect="1" arrows="1" fold="1" page="1" pageScale="1" pageWidth="1100" pageHeight="850" math="0" shadow="0">
      <root>
        <mxCell id="0" />
        <mxCell id="1" parent="0" />
        <mxCell id="pmOOVxwG420c-32HkS5u-1" value="&lt;font size=&quot;1&quot; face=&quot;Times New Roman&quot;&gt;&lt;span style=&quot;font-size: 16px;&quot;&gt;Data Collection and Pre-processing&lt;/span&gt;&lt;/font&gt;" style="rounded=0;whiteSpace=wrap;html=1;strokeWidth=2;container=0;fontStyle=0" parent="1" vertex="1">
          <mxGeometry x="70" y="390" width="130" height="60" as="geometry" />
        </mxCell>
        <mxCell id="pmOOVxwG420c-32HkS5u-2" value="&lt;font size=&quot;1&quot; face=&quot;Times New Roman&quot;&gt;&lt;span style=&quot;font-size: 16px;&quot;&gt;&lt;br&gt;&lt;/span&gt;&lt;/font&gt;" style="rounded=0;whiteSpace=wrap;html=1;strokeWidth=2;container=0;fontStyle=0" parent="1" vertex="1">
          <mxGeometry x="290" y="390" width="180" height="190" as="geometry" />
        </mxCell>
        <mxCell id="pmOOVxwG420c-32HkS5u-4" value="&lt;span style=&quot;border-color: var(--border-color); color: rgb(0, 0, 0); font-family: &amp;quot;Times New Roman&amp;quot;; font-style: normal; font-variant-ligatures: normal; font-variant-caps: normal; letter-spacing: normal; orphans: 2; text-align: center; text-indent: 0px; text-transform: none; widows: 2; word-spacing: 0px; -webkit-text-stroke-width: 0px; background-color: rgb(251, 251, 251); text-decoration-thickness: initial; text-decoration-style: initial; text-decoration-color: initial; font-size: 16px;&quot;&gt;Antipattern &lt;br&gt;Detection Tool&lt;br&gt;&lt;/span&gt;" style="text;whiteSpace=wrap;html=1;container=0;strokeWidth=2;fontStyle=0" parent="1" vertex="1">
          <mxGeometry x="315" y="340" width="135" height="40" as="geometry" />
        </mxCell>
        <mxCell id="HHuTXF0BT0n3mswBOlXm-3" value="" style="endArrow=classic;html=1;rounded=0;strokeWidth=2;entryX=0;entryY=0.5;entryDx=0;entryDy=0;fontStyle=0" parent="1" target="SRh0s-oIHB4yDXquQM8V-11" edge="1">
          <mxGeometry width="50" height="50" relative="1" as="geometry">
            <mxPoint x="210" y="420" as="sourcePoint" />
            <mxPoint x="480" y="330" as="targetPoint" />
            <Array as="points">
              <mxPoint x="250" y="420" />
              <mxPoint x="250" y="330" />
            </Array>
          </mxGeometry>
        </mxCell>
        <mxCell id="HHuTXF0BT0n3mswBOlXm-4" value="" style="endArrow=classic;html=1;rounded=0;entryX=0;entryY=0.5;entryDx=0;entryDy=0;strokeWidth=2;fontStyle=0" parent="1" target="pmOOVxwG420c-32HkS5u-2" edge="1">
          <mxGeometry width="50" height="50" relative="1" as="geometry">
            <mxPoint x="250" y="420" as="sourcePoint" />
            <mxPoint x="260" y="460" as="targetPoint" />
            <Array as="points">
              <mxPoint x="250" y="485" />
            </Array>
          </mxGeometry>
        </mxCell>
        <mxCell id="HHuTXF0BT0n3mswBOlXm-6" value="&lt;font size=&quot;1&quot; face=&quot;Times New Roman&quot;&gt;&lt;span style=&quot;font-size: 16px;&quot;&gt;Result&amp;nbsp;&lt;br&gt;Analysis&lt;br&gt;&lt;/span&gt;&lt;/font&gt;" style="rounded=0;whiteSpace=wrap;html=1;strokeWidth=2;container=0;fontStyle=0" parent="1" vertex="1">
          <mxGeometry x="670" y="390" width="120" height="60" as="geometry" />
        </mxCell>
        <mxCell id="HHuTXF0BT0n3mswBOlXm-7" value="" style="endArrow=classic;html=1;rounded=0;entryX=0;entryY=0.5;entryDx=0;entryDy=0;exitX=1;exitY=0.5;exitDx=0;exitDy=0;strokeWidth=2;fontStyle=0" parent="1" source="SRh0s-oIHB4yDXquQM8V-11" target="HHuTXF0BT0n3mswBOlXm-6" edge="1">
          <mxGeometry width="50" height="50" relative="1" as="geometry">
            <mxPoint x="635" y="330" as="sourcePoint" />
            <mxPoint x="530" y="350" as="targetPoint" />
            <Array as="points">
              <mxPoint x="640" y="330" />
              <mxPoint x="640" y="420" />
            </Array>
          </mxGeometry>
        </mxCell>
        <mxCell id="HHuTXF0BT0n3mswBOlXm-9" value="" style="endArrow=none;html=1;rounded=0;strokeWidth=2;fontStyle=0" parent="1" source="pmOOVxwG420c-32HkS5u-2" edge="1">
          <mxGeometry width="50" height="50" relative="1" as="geometry">
            <mxPoint x="650" y="560" as="sourcePoint" />
            <mxPoint x="640" y="420" as="targetPoint" />
            <Array as="points">
              <mxPoint x="640" y="485" />
            </Array>
          </mxGeometry>
        </mxCell>
        <mxCell id="HHuTXF0BT0n3mswBOlXm-10" value="&lt;font size=&quot;1&quot; face=&quot;Times New Roman&quot;&gt;&lt;span style=&quot;font-size: 16px;&quot;&gt;Prevalence of Antipatterns&lt;br&gt;&lt;/span&gt;&lt;/font&gt;" style="rounded=0;whiteSpace=wrap;html=1;strokeWidth=2;container=0;fontStyle=0" parent="1" vertex="1">
          <mxGeometry x="890" y="280" width="120" height="60" as="geometry" />
        </mxCell>
        <mxCell id="HHuTXF0BT0n3mswBOlXm-11" value="&lt;font size=&quot;1&quot; face=&quot;Times New Roman&quot;&gt;&lt;span style=&quot;font-size: 16px;&quot;&gt;Performance of Proposed&amp;nbsp; Method&lt;br&gt;&lt;/span&gt;&lt;/font&gt;" style="rounded=0;whiteSpace=wrap;html=1;strokeWidth=2;container=0;fontStyle=0" parent="1" vertex="1">
          <mxGeometry x="890" y="360" width="120" height="60" as="geometry" />
        </mxCell>
        <mxCell id="HHuTXF0BT0n3mswBOlXm-12" value="&lt;font face=&quot;Times New Roman&quot;&gt;&lt;span style=&quot;font-size: 16px;&quot;&gt;Most A&lt;/span&gt;&lt;span style=&quot;font-size: 16px;&quot;&gt;&lt;span&gt;ffected&lt;/span&gt;&lt;/span&gt;&lt;span style=&quot;font-size: 16px;&quot;&gt;&amp;nbsp;API C&lt;/span&gt;&lt;span style=&quot;font-size: 16px;&quot;&gt;&lt;span&gt;ategory&lt;/span&gt;&lt;/span&gt;&lt;br&gt;&lt;/font&gt;" style="rounded=0;whiteSpace=wrap;html=1;strokeWidth=2;container=0;fontStyle=0" parent="1" vertex="1">
          <mxGeometry x="890" y="440" width="120" height="60" as="geometry" />
        </mxCell>
        <mxCell id="HHuTXF0BT0n3mswBOlXm-13" value="&lt;font size=&quot;1&quot; face=&quot;Times New Roman&quot;&gt;&lt;span style=&quot;font-size: 16px;&quot;&gt;Most Common Antipatterns&lt;br&gt;&lt;/span&gt;&lt;/font&gt;" style="rounded=0;whiteSpace=wrap;html=1;strokeWidth=2;container=0;fontStyle=0" parent="1" vertex="1">
          <mxGeometry x="890" y="520" width="120" height="60" as="geometry" />
        </mxCell>
        <mxCell id="HHuTXF0BT0n3mswBOlXm-14" value="" style="endArrow=none;html=1;rounded=0;strokeWidth=2;fontStyle=0" parent="1" edge="1">
          <mxGeometry width="50" height="50" relative="1" as="geometry">
            <mxPoint x="790" y="420" as="sourcePoint" />
            <mxPoint x="850" y="420" as="targetPoint" />
          </mxGeometry>
        </mxCell>
        <mxCell id="HHuTXF0BT0n3mswBOlXm-21" value="&lt;font size=&quot;1&quot; face=&quot;Times New Roman&quot;&gt;&lt;span style=&quot;font-size: 16px;&quot;&gt;RQ1&lt;/span&gt;&lt;/font&gt;" style="text;html=1;align=center;verticalAlign=middle;resizable=0;points=[];autosize=1;strokeColor=none;fillColor=none;container=0;strokeWidth=2;fontStyle=0" parent="1" vertex="1">
          <mxGeometry x="800" y="295" width="50" height="30" as="geometry" />
        </mxCell>
        <mxCell id="HHuTXF0BT0n3mswBOlXm-22" value="&lt;font face=&quot;Times New Roman&quot;&gt;&lt;span&gt;&lt;font style=&quot;font-size: 16px;&quot;&gt;RQ2&lt;/font&gt;&lt;br&gt;&lt;/span&gt;&lt;/font&gt;" style="text;html=1;align=center;verticalAlign=middle;resizable=0;points=[];autosize=1;strokeColor=none;fillColor=none;container=0;strokeWidth=2;fontStyle=0" parent="1" vertex="1">
          <mxGeometry x="800" y="365" width="50" height="30" as="geometry" />
        </mxCell>
        <mxCell id="HHuTXF0BT0n3mswBOlXm-23" value="&lt;font face=&quot;Times New Roman&quot;&gt;&lt;span&gt;&lt;font style=&quot;font-size: 16px;&quot;&gt;RQ3&lt;/font&gt;&lt;br&gt;&lt;/span&gt;&lt;/font&gt;" style="text;html=1;align=center;verticalAlign=middle;resizable=0;points=[];autosize=1;strokeColor=none;fillColor=none;container=0;strokeWidth=2;fontStyle=0" parent="1" vertex="1">
          <mxGeometry x="795" y="450" width="50" height="30" as="geometry" />
        </mxCell>
        <mxCell id="HHuTXF0BT0n3mswBOlXm-24" value="&lt;font size=&quot;1&quot; face=&quot;Times New Roman&quot;&gt;&lt;span style=&quot;font-size: 16px;&quot;&gt;RQ4&lt;/span&gt;&lt;/font&gt;" style="text;html=1;align=center;verticalAlign=middle;resizable=0;points=[];autosize=1;strokeColor=none;fillColor=none;container=0;strokeWidth=2;fontStyle=0" parent="1" vertex="1">
          <mxGeometry x="800" y="530" width="50" height="30" as="geometry" />
        </mxCell>
        <mxCell id="HHuTXF0BT0n3mswBOlXm-25" value="&lt;font style=&quot;font-size: 15px;&quot; face=&quot;Times New Roman&quot;&gt;&lt;span style=&quot;&quot;&gt;Syntactical&amp;nbsp;&lt;br&gt;Analysis&lt;br&gt;&lt;/span&gt;&lt;/font&gt;" style="rounded=0;whiteSpace=wrap;html=1;strokeWidth=2;container=0;fontStyle=0" parent="1" vertex="1">
          <mxGeometry x="300" y="430" width="160" height="40" as="geometry" />
        </mxCell>
        <mxCell id="HHuTXF0BT0n3mswBOlXm-26" value="&lt;font style=&quot;&quot; face=&quot;Times New Roman&quot;&gt;&lt;span style=&quot;&quot;&gt;&lt;font style=&quot;font-size: 15px;&quot;&gt;Heuristics&lt;/font&gt;&lt;br&gt;&lt;/span&gt;&lt;/font&gt;" style="rounded=0;whiteSpace=wrap;html=1;strokeWidth=2;container=0;fontStyle=0" parent="1" vertex="1">
          <mxGeometry x="300" y="395" width="160" height="25" as="geometry" />
        </mxCell>
        <mxCell id="HHuTXF0BT0n3mswBOlXm-27" value="&lt;font style=&quot;font-size: 11px;&quot; face=&quot;Times New Roman&quot;&gt;&lt;span style=&quot;&quot;&gt;&lt;br&gt;&lt;/span&gt;&lt;/font&gt;" style="rounded=0;whiteSpace=wrap;html=1;strokeWidth=2;container=0;fontStyle=0" parent="1" vertex="1">
          <mxGeometry x="300" y="480" width="160" height="90" as="geometry" />
        </mxCell>
        <mxCell id="HHuTXF0BT0n3mswBOlXm-28" value="&lt;font style=&quot;&quot; face=&quot;Times New Roman&quot;&gt;&lt;span style=&quot;&quot;&gt;&lt;font style=&quot;font-size: 15px;&quot;&gt;LDA Topic Model&lt;/font&gt;&lt;br&gt;&lt;/span&gt;&lt;/font&gt;" style="rounded=0;whiteSpace=wrap;html=1;strokeWidth=2;container=0;fontStyle=0" parent="1" vertex="1">
          <mxGeometry x="310" y="515" width="140" height="20" as="geometry" />
        </mxCell>
        <mxCell id="HHuTXF0BT0n3mswBOlXm-30" value="&lt;font style=&quot;&quot; face=&quot;Times New Roman&quot;&gt;&lt;span style=&quot;&quot;&gt;&lt;font style=&quot;font-size: 15px;&quot;&gt;Semantical Analysis&lt;/font&gt;&lt;br&gt;&lt;/span&gt;&lt;/font&gt;" style="rounded=0;whiteSpace=wrap;html=1;strokeWidth=2;container=0;fillColor=none;strokeColor=none;fontStyle=0" parent="1" vertex="1">
          <mxGeometry x="310" y="490" width="140" height="20" as="geometry" />
        </mxCell>
        <mxCell id="HHuTXF0BT0n3mswBOlXm-38" value="&lt;font size=&quot;1&quot; face=&quot;Times New Roman&quot;&gt;&lt;span style=&quot;font-size: 16px;&quot;&gt;Step 1&lt;/span&gt;&lt;/font&gt;" style="text;html=1;align=center;verticalAlign=middle;resizable=0;points=[];autosize=1;strokeColor=none;fillColor=none;container=0;strokeWidth=2;fontStyle=0" parent="1" vertex="1">
          <mxGeometry x="120" y="590" width="60" height="30" as="geometry" />
        </mxCell>
        <mxCell id="HHuTXF0BT0n3mswBOlXm-40" value="&lt;font size=&quot;1&quot; face=&quot;Times New Roman&quot;&gt;&lt;span style=&quot;font-size: 16px;&quot;&gt;Step 3&lt;/span&gt;&lt;/font&gt;" style="text;html=1;align=center;verticalAlign=middle;resizable=0;points=[];autosize=1;strokeColor=none;fillColor=none;container=0;strokeWidth=2;fontStyle=0" parent="1" vertex="1">
          <mxGeometry x="535" y="590" width="60" height="30" as="geometry" />
        </mxCell>
        <mxCell id="HHuTXF0BT0n3mswBOlXm-41" value="&lt;font size=&quot;1&quot; face=&quot;Times New Roman&quot;&gt;&lt;span style=&quot;font-size: 16px;&quot;&gt;Step 4&lt;/span&gt;&lt;/font&gt;" style="text;html=1;align=center;verticalAlign=middle;resizable=0;points=[];autosize=1;strokeColor=none;fillColor=none;container=0;strokeWidth=2;fontStyle=0" parent="1" vertex="1">
          <mxGeometry x="790" y="590" width="60" height="30" as="geometry" />
        </mxCell>
        <mxCell id="HHuTXF0BT0n3mswBOlXm-57" value="&lt;font size=&quot;1&quot; face=&quot;Times New Roman&quot;&gt;&lt;span style=&quot;font-size: 16px;&quot;&gt;Step 2&lt;br&gt;&lt;/span&gt;&lt;/font&gt;" style="text;html=1;align=center;verticalAlign=middle;resizable=0;points=[];autosize=1;strokeColor=none;fillColor=none;container=0;strokeWidth=2;fontStyle=0" parent="1" vertex="1">
          <mxGeometry x="352.5" y="590" width="60" height="30" as="geometry" />
        </mxCell>
        <mxCell id="HHuTXF0BT0n3mswBOlXm-63" value="&lt;font style=&quot;&quot; face=&quot;Times New Roman&quot;&gt;&lt;span style=&quot;&quot;&gt;&lt;font style=&quot;font-size: 15px;&quot;&gt;Cosine Similarity&lt;/font&gt;&lt;br&gt;&lt;/span&gt;&lt;/font&gt;" style="rounded=0;whiteSpace=wrap;html=1;strokeWidth=2;container=0;fontStyle=0" parent="1" vertex="1">
          <mxGeometry x="310" y="540" width="140" height="20" as="geometry" />
        </mxCell>
        <mxCell id="SRh0s-oIHB4yDXquQM8V-6" value="" style="endArrow=none;html=1;rounded=0;strokeWidth=2;fontStyle=0" parent="1" edge="1">
          <mxGeometry width="50" height="50" relative="1" as="geometry">
            <mxPoint x="90" y="590" as="sourcePoint" />
            <mxPoint x="210" y="590" as="targetPoint" />
          </mxGeometry>
        </mxCell>
        <mxCell id="SRh0s-oIHB4yDXquQM8V-7" value="" style="endArrow=none;html=1;rounded=0;strokeWidth=2;fontStyle=0" parent="1" edge="1">
          <mxGeometry width="50" height="50" relative="1" as="geometry">
            <mxPoint x="280" y="590" as="sourcePoint" />
            <mxPoint x="480" y="590" as="targetPoint" />
          </mxGeometry>
        </mxCell>
        <mxCell id="SRh0s-oIHB4yDXquQM8V-9" value="" style="endArrow=none;html=1;rounded=0;strokeWidth=2;fontStyle=0" parent="1" edge="1">
          <mxGeometry width="50" height="50" relative="1" as="geometry">
            <mxPoint x="490" y="590" as="sourcePoint" />
            <mxPoint x="630" y="590" as="targetPoint" />
          </mxGeometry>
        </mxCell>
        <mxCell id="SRh0s-oIHB4yDXquQM8V-10" value="" style="endArrow=none;html=1;rounded=0;strokeWidth=2;fontStyle=0" parent="1" edge="1">
          <mxGeometry width="50" height="50" relative="1" as="geometry">
            <mxPoint x="660" y="590" as="sourcePoint" />
            <mxPoint x="1020" y="590" as="targetPoint" />
          </mxGeometry>
        </mxCell>
        <mxCell id="SRh0s-oIHB4yDXquQM8V-11" value="&lt;span style=&quot;border-color: var(--border-color); font-family: &amp;quot;Times New Roman&amp;quot;; font-size: 16px;&quot;&gt;Manual Validation&lt;/span&gt;&lt;font size=&quot;1&quot; face=&quot;Times New Roman&quot;&gt;&lt;span style=&quot;font-size: 16px;&quot;&gt;&lt;br&gt;&lt;/span&gt;&lt;/font&gt;" style="rounded=0;whiteSpace=wrap;html=1;strokeWidth=2;container=0;fontStyle=0" parent="1" vertex="1">
          <mxGeometry x="490" y="300" width="120" height="60" as="geometry" />
        </mxCell>
        <mxCell id="SRh0s-oIHB4yDXquQM8V-17" value="" style="endArrow=classic;html=1;rounded=0;strokeWidth=2;entryX=0;entryY=0.5;entryDx=0;entryDy=0;fontStyle=0" parent="1" target="HHuTXF0BT0n3mswBOlXm-10" edge="1">
          <mxGeometry width="50" height="50" relative="1" as="geometry">
            <mxPoint x="850" y="420" as="sourcePoint" />
            <mxPoint x="900" y="370" as="targetPoint" />
            <Array as="points">
              <mxPoint x="850" y="310" />
            </Array>
          </mxGeometry>
        </mxCell>
        <mxCell id="SRh0s-oIHB4yDXquQM8V-19" value="" style="endArrow=classic;html=1;rounded=0;strokeWidth=2;entryX=0;entryY=0.5;entryDx=0;entryDy=0;fontStyle=0" parent="1" target="HHuTXF0BT0n3mswBOlXm-11" edge="1">
          <mxGeometry width="50" height="50" relative="1" as="geometry">
            <mxPoint x="850" y="390" as="sourcePoint" />
            <mxPoint x="900" y="345" as="targetPoint" />
          </mxGeometry>
        </mxCell>
        <mxCell id="SRh0s-oIHB4yDXquQM8V-20" value="" style="endArrow=classic;html=1;rounded=0;strokeWidth=2;entryX=0;entryY=0.5;entryDx=0;entryDy=0;fontStyle=0" parent="1" target="HHuTXF0BT0n3mswBOlXm-13" edge="1">
          <mxGeometry width="50" height="50" relative="1" as="geometry">
            <mxPoint x="850" y="420" as="sourcePoint" />
            <mxPoint x="880" y="550" as="targetPoint" />
            <Array as="points">
              <mxPoint x="850" y="550" />
            </Array>
          </mxGeometry>
        </mxCell>
        <mxCell id="SRh0s-oIHB4yDXquQM8V-21" value="" style="endArrow=classic;html=1;rounded=0;strokeWidth=2;entryX=0;entryY=0.5;entryDx=0;entryDy=0;fontStyle=0" parent="1" target="HHuTXF0BT0n3mswBOlXm-12" edge="1">
          <mxGeometry width="50" height="50" relative="1" as="geometry">
            <mxPoint x="850" y="470" as="sourcePoint" />
            <mxPoint x="900" y="425" as="targetPoint" />
          </mxGeometry>
        </mxCell>
      </root>
    </mxGraphModel>
  </diagram>
</mxfile>
